<svg height="464pt" viewBox="0 0 464 464" width="464pt" xmlns="http://www.w3.org/2000/svg"><path d="m384 64v336c-.027344 8.824219-7.175781 15.972656-16 16h-304c-8.824219-.027344-15.972656-7.175781-16-16v-304l48.480469-48h271.519531c8.824219.027344 15.972656 7.175781 16 16zm0 0" fill="#57565c"/><g fill="#2d2d30"><path d="m328 416v40c0 4.417969-3.582031 8-8 8h-8c-4.417969 0-8-3.582031-8-8v-40zm0 0"/><path d="m272 416v40c0 4.417969-3.582031 8-8 8h-8c-4.417969 0-8-3.582031-8-8v-40zm0 0"/><path d="m216 416v40c0 4.417969-3.582031 8-8 8h-8c-4.417969 0-8-3.582031-8-8v-40zm0 0"/><path d="m160 416v40c0 4.417969-3.582031 8-8 8h-8c-4.417969 0-8-3.582031-8-8v-40zm0 0"/><path d="m48 304v24h-40c-4.417969 0-8-3.582031-8-8v-8c0-4.417969 3.582031-8 8-8zm0 0"/><path d="m48 248v24h-40c-4.417969 0-8-3.582031-8-8v-8c0-4.417969 3.582031-8 8-8zm0 0"/><path d="m48 192v24h-40c-4.417969 0-8-3.582031-8-8v-8c0-4.417969 3.582031-8 8-8zm0 0"/><path d="m48 136v24h-40c-4.417969 0-8-3.582031-8-8v-8c0-4.417969 3.582031-8 8-8zm0 0"/><path d="m328 8v40h-24v-40c0-4.417969 3.582031-8 8-8h8c4.417969 0 8 3.582031 8 8zm0 0"/><path d="m272 8v40h-24v-40c0-4.417969 3.582031-8 8-8h8c4.417969 0 8 3.582031 8 8zm0 0"/><path d="m216 8v40h-24v-40c0-4.417969 3.582031-8 8-8h8c4.417969 0 8 3.582031 8 8zm0 0"/><path d="m160 8v40h-24v-40c0-4.417969 3.582031-8 8-8h8c4.417969 0 8 3.582031 8 8zm0 0"/></g><path d="m136 136h168v192h-168zm0 0" fill="#d8d7da"/><path d="m448 160v24h-32v-24c0-26.507812-21.492188-48-48-48s-48 21.492188-48 48v24h-32v-24c0-44.183594 35.816406-80 80-80l15.761719 1.519531c37.34375 7.566407 64.199219 40.378907 64.238281 78.480469zm0 0" fill="#bddbff"/><path d="m288 184h160c8.835938 0 16 7.164062 16 16v168c0 8.835938-7.164062 16-16 16h-160c-8.835938 0-16-7.164062-16-16v-168c0-8.835938 7.164062-16 16-16zm0 0" fill="#005ece"/><path d="m378.960938 277.359375 8.71875 39.199219c1.0625 4.734375-.089844 9.691406-3.125 13.472656-3.035157 3.78125-7.625 5.980469-12.476563 5.96875h-8.15625c-4.851563.011719-9.441406-2.1875-12.476563-5.96875-3.035156-3.78125-4.1875-8.738281-3.125-13.472656l8.71875-39.199219c-9.859374-5.0625-14.972656-16.214844-12.367187-26.988281 2.601563-10.773438 12.246094-18.363282 23.328125-18.363282s20.726562 7.589844 23.328125 18.363282c2.605469 10.773437-2.507813 21.925781-12.367187 26.988281zm0 0" fill="#ffda44"/><path d="m164 160c6.628906 0 12 5.371094 12 12v16c0 6.628906-5.371094 12-12 12s-12-5.371094-12-12v-16c0-6.628906 5.371094-12 12-12zm0 0" fill="#fff"/><path d="m164 216c6.628906 0 12 5.371094 12 12s-5.371094 12-12 12-12-5.371094-12-12 5.371094-12 12-12zm0 0" fill="#fff"/></svg>